<svg width="25" height="28" viewBox="0 0 36 28" fill="none" xmlns="http://www.w3.org/2000/svg">
<path d="M33.7188 9.65039H15.6387V19.7024H33.7188V9.65039Z" fill="#FCBE32"/>
<path d="M16.8157 18.0801H3.11328V27.0464H16.8157V18.0801Z" fill="#FCBE32"/>
<path d="M7.62136 18.0801H0V27.0464H7.62136V18.0801Z" fill="#FFD580"/>
<path d="M24.183 9.65039H15.6387V19.7024H24.183V9.65039Z" fill="#FFD580"/>
<path d="M13.7032 11.1504H3.11328V18.0801H13.7032V11.1504Z" fill="#FCBE32"/>
<path d="M35.9993 19.7031H13.252V22.943H35.9993V19.7031Z" fill="#FF0000"/>
<path d="M33.7182 22.9434H15.1094V25.2091H33.7182V22.9434Z" fill="#FF0000"/>
<path d="M30.2901 0.210938H15.6387V7.09847H30.2901V0.210938Z" fill="#FFE6E6"/>
<path d="M28.3301 6.20687H17.5905C17.1209 6.20687 16.7402 5.82621 16.7402 5.35658V1.95186C16.7402 1.48222 17.1209 1.10156 17.5905 1.10156H28.3301C28.7997 1.10156 29.1804 1.48222 29.1804 1.95186V5.35658C29.1804 5.82621 28.7997 6.20687 28.3301 6.20687Z" fill="#FF0000"/>
<path d="M19.8379 7.09766H17.2852V9.65044H19.8379V7.09766Z" fill="#FFE6E6"/>
<path d="M17.7229 25.209H16.4844V27.0668H17.7229V25.209Z" fill="#FF0000"/>
<path d="M33.2503 25.209H32.0117V27.0668H33.2503V25.209Z" fill="#FF0000"/>
<path d="M9.4396 11.1504H7.37305V12.7914H9.4396V11.1504Z" fill="#FFE9C5"/>
<path d="M4.41421 18.0801H2.34766V19.7211H4.41421V18.0801Z" fill="#FFE9C5"/>
<path d="M13.7032 17.248H3.11328V18.0809H13.7032V17.248Z" fill="#FFD580"/>
<path d="M33.7188 18.7695H15.6387V19.7034H33.7188V18.7695Z" fill="#FFD580"/>
<path d="M20.3986 9.65039H18.5625V11.4865H20.3986V9.65039Z" fill="#FFE9C5"/>
<path d="M33.7182 22.9434H15.1094V23.7607H33.7182V22.9434Z" fill="#E80000"/>
<path d="M19.8379 7.09766H17.2852V7.60701H19.8379V7.09766Z" fill="#FF0000"/>
<g clip-path="url(#clip0_773_2617)">
<path d="M28.2491 4.25425H27.1816V3.89844H28.2491V4.25425ZM28.9607 5.67749H27.8933V5.32168H28.9607V5.67749ZM28.6049 4.96587H27.5375V4.61006H28.6049V4.96587Z" fill="white"/>
<path d="M26.6474 4.25307C26.646 4.10298 26.6059 3.95577 26.531 3.82571C26.4561 3.69564 26.3488 3.58713 26.2197 3.51068L27.5363 1.22869L27.2286 1.05078L25.8806 3.38596C25.7151 3.34902 25.5431 3.35414 25.3801 3.40085C25.2172 3.44757 25.0686 3.53438 24.9478 3.65336C24.2817 4.29577 24.3333 5.79765 24.3358 5.86134C24.3377 5.90728 24.3572 5.95072 24.3904 5.98256C24.4236 6.0144 24.4678 6.03216 24.5137 6.03213H27.1807C27.2181 6.03213 27.2544 6.02038 27.2847 5.99854C27.315 5.97671 27.3377 5.9459 27.3495 5.91048C27.3613 5.87506 27.3617 5.83682 27.3505 5.80117C27.3394 5.76553 27.3173 5.7343 27.2875 5.7119C26.6577 5.23938 26.6474 4.26268 26.6474 4.25307ZM25.7448 3.71882C25.8872 3.72039 26.0235 3.77679 26.1254 3.8763C26.2273 3.97581 26.2868 4.11076 26.2917 4.25307C26.2917 4.25983 26.2921 4.29008 26.2947 4.33651L25.2451 3.86969C25.3142 3.81267 25.394 3.76998 25.4798 3.74408C25.5656 3.71818 25.6557 3.70959 25.7448 3.71882ZM26.3711 5.67631C26.2289 5.53152 26.1382 5.34398 26.1131 5.1426H25.7573C25.77 5.33194 25.8292 5.51524 25.9295 5.67631H25.534C25.4608 5.44544 25.4163 5.20644 25.4015 4.96469H25.0457C25.0571 5.20572 25.0968 5.44457 25.164 5.67631H24.6899C24.6954 5.34968 24.7415 4.6281 25.0106 4.15469L26.3508 4.75067C26.415 5.08506 26.5523 5.40113 26.7529 5.67631H26.3711Z" fill="white"/>
</g>
<g clip-path="url(#clip1_773_2617)">
<path d="M21.6755 3.96845H20.5856V3.96562C20.5853 3.85138 20.5397 3.74191 20.459 3.66113C20.3782 3.58035 20.2687 3.53481 20.1545 3.53447H20.1468L20.9876 1.26906L20.61 1.12891L19.7174 3.53447H19.7089C19.5947 3.53481 19.4852 3.58035 19.4044 3.66113C19.3237 3.74191 19.2781 3.85138 19.2778 3.96562V3.96845H18.1879V4.4044H21.6755V3.96845ZM21.6755 4.62281H18.1879L17.752 5.49078H22.1114L21.6755 4.62281Z" fill="white"/>
</g>
<defs>
<clipPath id="clip0_773_2617">
<rect width="5.69296" height="5.69296" fill="white" transform="translate(23.623 0.695312)"/>
</clipPath>
<clipPath id="clip1_773_2617">
<rect width="5.23137" height="5.23137" fill="white" transform="translate(17.3164 0.695312)"/>
</clipPath>
</defs>
</svg>
